<?xml version="1.0" encoding="UTF-8" standalone="no"?>
<!-- Created with Inkscape (http://www.inkscape.org/) -->

<svg
   xmlns:dc="http://purl.org/dc/elements/1.1/"
   xmlns:cc="http://creativecommons.org/ns#"
   xmlns:rdf="http://www.w3.org/1999/02/22-rdf-syntax-ns#"
   xmlns:svg="http://www.w3.org/2000/svg"
   xmlns="http://www.w3.org/2000/svg"
   xmlns:sodipodi="http://sodipodi.sourceforge.net/DTD/sodipodi-0.dtd"
   xmlns:inkscape="http://www.inkscape.org/namespaces/inkscape"
   width="25.453978mm"
   height="17.131832mm"
   viewBox="0 0 25.453978 17.131832"
   version="1.1"
   id="svg4558"
   inkscape:version="0.92.5 (2060ec1f9f, 2020-04-08)"
   sodipodi:docname="cat.svg">
  <defs
     id="defs4552" />
  <sodipodi:namedview
     id="base"
     pagecolor="#ffffff"
     bordercolor="#666666"
     borderopacity="1.0"
     inkscape:pageopacity="0.0"
     inkscape:pageshadow="2"
     inkscape:zoom="2.8"
     inkscape:cx="13.48031"
     inkscape:cy="-12.941204"
     inkscape:document-units="mm"
     inkscape:current-layer="layer1"
     showgrid="false"
     fit-margin-top="0"
     fit-margin-left="0"
     fit-margin-right="0"
     fit-margin-bottom="0"
     inkscape:window-width="1262"
     inkscape:window-height="1405"
     inkscape:window-x="3217"
     inkscape:window-y="35"
     inkscape:window-maximized="0" />
  <metadata
     id="metadata4555">
    <rdf:RDF>
      <cc:Work
         rdf:about="">
        <dc:format>image/svg+xml</dc:format>
        <dc:type
           rdf:resource="http://purl.org/dc/dcmitype/StillImage" />
        <dc:title></dc:title>
      </cc:Work>
    </rdf:RDF>
  </metadata>
  <g
     inkscape:label="Layer 1"
     inkscape:groupmode="layer"
     id="layer1"
     transform="translate(-25.826254,-63.916068)">
    <path
       style="fill:#000000;stroke-width:0.26458332"
       d="m 27.249967,81.006776 c 0.0145,-0.0236 0.005,-0.0559 -0.0203,-0.0717 -0.0588,-0.0363 -0.0616,-0.28502 -0.004,-0.32083 0.0237,-0.0147 0.0438,-0.0625 0.0446,-0.10627 0.004,-0.217 0.0736,-0.41381 0.18512,-0.52514 0.0679,-0.0678 0.17239,-0.21827 0.23208,-0.33432 0.0597,-0.11605 0.13618,-0.23396 0.17,-0.26202 0.0338,-0.0281 0.0615,-0.0806 0.0615,-0.1167 0,-0.0361 0.0746,-0.14232 0.16568,-0.236 0.0911,-0.0937 0.19627,-0.22932 0.23366,-0.30144 0.0374,-0.0721 0.19585,-0.26206 0.35211,-0.42206 0.4359,-0.44634 0.67533,-0.72376 0.67533,-0.78248 0,-0.0293 0.0518,-0.0769 0.11506,-0.10574 0.0633,-0.0288 0.11506,-0.0713 0.11506,-0.0944 0,-0.0231 0.0466,-0.0539 0.10356,-0.0683 0.057,-0.0145 0.17215,-0.0892 0.25597,-0.16608 0.0838,-0.0769 0.17975,-0.13977 0.21316,-0.13977 0.0649,0 0.26462,-0.24252 0.31748,-0.38554 0.0175,-0.0475 0.0125,-0.1098 -0.0113,-0.13843 -0.0518,-0.0624 -0.18862,-0.42822 -0.20858,-0.55762 -0.008,-0.0506 -0.02,-0.1024 -0.0271,-0.11506 -0.0215,-0.0383 -0.034,-0.10941 -0.0396,-0.2245 -0.005,-0.10202 -0.0182,-0.10737 -0.19606,-0.0789 -0.10492,0.0168 -0.24792,0.0712 -0.31778,0.12095 -0.0699,0.0497 -0.16101,0.0904 -0.20255,0.0904 -0.0415,0 -0.1253,0.0498 -0.18612,0.11059 -0.0608,0.0608 -0.2204,0.16281 -0.3546,0.22661 -0.13421,0.0638 -0.29302,0.16206 -0.35291,0.21834 -0.0599,0.0563 -0.20486,0.17436 -0.32217,0.2624 -0.11731,0.088 -0.26569,0.21961 -0.32974,0.2924 -0.064,0.0728 -0.1395,0.13233 -0.16767,0.13233 -0.0282,0 -0.0631,0.0311 -0.0777,0.069 -0.0146,0.038 -0.0535,0.069 -0.0865,0.069 -0.033,0 -0.097,0.0687 -0.14219,0.1526 -0.0452,0.0839 -0.15539,0.21338 -0.24486,0.28766 -0.28249,0.23455 -0.47633,0.43865 -0.47633,0.50154 0,0.0334 -0.0531,0.0741 -0.11802,0.0904 -0.0756,0.019 -0.1351,0.0786 -0.16559,0.16608 -0.0262,0.0751 -0.075,0.13645 -0.10853,0.13645 -0.0335,0 -0.0849,0.0725 -0.11413,0.16109 -0.0292,0.0886 -0.0723,0.16109 -0.0956,0.16109 -0.0233,0 -0.0814,0.039 -0.12908,0.0866 -0.0494,0.0494 -0.11061,0.0718 -0.14241,0.0521 -0.0669,-0.0413 0.0196,-0.23181 0.18988,-0.41834 0.0595,-0.0652 0.11448,-0.15408 0.12216,-0.19756 0.008,-0.0435 0.0698,-0.13514 0.13808,-0.20368 0.0683,-0.0685 0.13003,-0.15272 0.13725,-0.18707 0.007,-0.0343 0.0435,-0.0928 0.0805,-0.12986 0.0371,-0.0371 0.0674,-0.0852 0.0674,-0.10703 0,-0.0218 0.0416,-0.0529 0.0925,-0.069 0.0509,-0.0162 0.12291,-0.0881 0.16002,-0.15982 0.0371,-0.0717 0.095,-0.15831 0.12863,-0.19235 0.0336,-0.034 0.11092,-0.15079 0.17173,-0.25943 0.0939,-0.16775 0.40306,-0.42257 0.62071,-0.51157 0.0253,-0.0104 0.0729,-0.0567 0.10568,-0.10291 0.0328,-0.0462 0.1519,-0.13813 0.26465,-0.20421 0.11273,-0.0661 0.20499,-0.13888 0.20499,-0.16178 0,-0.0229 0.0414,-0.0417 0.0921,-0.0417 0.0506,0 0.092,-0.0193 0.092,-0.0429 0,-0.0236 0.0435,-0.0567 0.0966,-0.0736 0.0531,-0.0169 0.13597,-0.07 0.18411,-0.11817 0.0481,-0.0481 0.12892,-0.0875 0.17955,-0.0875 0.0506,0 0.0921,-0.0289 0.0921,-0.0641 0,-0.0742 0.098,-0.11998 0.2569,-0.11998 0.0612,0 0.11129,-0.0266 0.11129,-0.059 0,-0.0324 0.089,-0.0853 0.19777,-0.11738 0.10876,-0.0321 0.25387,-0.10395 0.32247,-0.15963 0.10991,-0.0892 0.12683,-0.13953 0.14238,-0.42342 0.01,-0.17719 0.0226,-0.32217 0.0287,-0.32217 0.006,0 0.0171,-0.0932 0.0245,-0.20712 0.0211,-0.32474 0.0562,-0.54427 0.0971,-0.60841 0.0207,-0.0324 0.0508,-0.19357 0.0668,-0.35811 0.016,-0.16454 0.0436,-0.35095 0.0611,-0.41423 0.0176,-0.0633 0.0427,-0.18755 0.0559,-0.27615 0.0132,-0.0886 0.055,-0.2098 0.0931,-0.26934 0.038,-0.0595 0.0589,-0.14754 0.0463,-0.19556 -0.0125,-0.048 -0.007,-0.0972 0.0128,-0.10935 0.0196,-0.0121 0.0497,-0.10949 0.0667,-0.21638 0.0171,-0.10689 0.0487,-0.21608 0.0703,-0.24265 0.0494,-0.0609 0.13976,-0.36643 0.17074,-0.5776 0.11146,-0.75954 0.17806,-1.09119 0.23294,-1.15968 0.0264,-0.033 0.0867,-0.21532 0.1339,-0.40517 0.0472,-0.18985 0.0984,-0.35554 0.11373,-0.3682 0.0153,-0.0127 0.0294,-0.0541 0.0312,-0.0921 0.007,-0.15233 0.28734,-0.96387 0.47306,-1.37048 0.0494,-0.10826 0.0899,-0.22756 0.0899,-0.26511 0,-0.0376 0.0716,-0.17013 0.15908,-0.2946 0.0875,-0.1245 0.18978,-0.29986 0.22733,-0.38972 0.067,-0.16031 0.1079,-0.22088 0.26944,-0.39888 0.0443,-0.0488 0.0805,-0.10662 0.0805,-0.12845 0,-0.0218 0.0621,-0.11788 0.13809,-0.21344 0.0759,-0.0956 0.13807,-0.20196 0.13807,-0.23645 0,-0.0345 0.0207,-0.0627 0.046,-0.0627 0.0253,0 0.046,-0.0272 0.046,-0.0604 0,-0.0332 0.0414,-0.10482 0.0921,-0.15917 0.0506,-0.0543 0.0921,-0.12723 0.0921,-0.16198 0,-0.0348 0.0504,-0.0902 0.11202,-0.12314 0.0616,-0.033 0.13708,-0.1245 0.16772,-0.20339 0.077,-0.19828 0.24002,-0.44189 0.296,-0.44228 0.0256,-1.3e-4 0.0723,-0.0417 0.10394,-0.0924 0.0834,-0.13349 0.23219,-0.11626 0.29824,0.0345 0.0305,0.0696 0.16986,0.24051 0.30969,0.37977 0.35165,0.35023 0.59932,0.62879 0.59991,0.67471 0,0.0212 0.0883,0.13505 0.1956,0.25292 0.22597,0.24821 0.35098,0.41061 0.44896,0.58328 0.0384,0.0676 0.12639,0.20539 0.19562,0.30619 0.0692,0.10081 0.12584,0.21013 0.12584,0.24295 0,0.0328 0.0621,0.18275 0.13809,0.33319 0.0759,0.15044 0.13807,0.296 0.13807,0.32347 0,0.036 0.34927,0.7936 0.44028,0.95501 0.004,0.007 0.067,-0.0102 0.14015,-0.0382 0.1966,-0.0754 0.90521,-0.18297 1.03394,-0.15693 0.14539,0.0294 1.83348,0.0292 1.88109,-2.6e-4 0.0358,-0.0221 0.40485,-0.75505 0.59752,-1.18666 0.0537,-0.12024 0.1178,-0.21862 0.14248,-0.21862 0.0247,0 0.0449,-0.029 0.0449,-0.0644 0,-0.1014 0.26643,-0.58167 0.44059,-0.79421 0.0871,-0.10625 0.22154,-0.31381 0.29884,-0.46124 0.0773,-0.14743 0.22216,-0.39958 0.32189,-0.56033 0.0997,-0.16075 0.18135,-0.30944 0.18135,-0.3304 0,-0.0864 0.32277,-0.37648 0.39017,-0.35062 0.0386,0.0148 0.0701,0.008 0.0701,-0.0155 0,-0.0581 0.31827,-0.2047 0.42667,-0.19653 0.0484,0.004 0.1506,0.08 0.22719,0.16966 0.0766,0.0897 0.15541,0.15308 0.17513,0.14089 0.0499,-0.0309 0.0943,0.10073 0.0621,0.18443 -0.0146,0.038 -0.0459,0.069 -0.0697,0.069 -0.0244,0 -0.0305,0.0751 -0.0141,0.1726 0.0458,0.27139 0.0705,0.33699 0.11645,0.30862 0.0235,-0.0145 0.0427,0.009 0.0427,0.053 0,0.0437 0.0725,0.21132 0.16109,0.3725 0.0886,0.16119 0.16108,0.31307 0.16108,0.33751 0,0.0244 0.0414,0.0859 0.0921,0.13649 0.0506,0.0506 0.0921,0.12311 0.0921,0.16108 0,0.038 0.0207,0.069 0.046,0.069 0.0253,0 0.046,0.0425 0.046,0.0943 0,0.0519 0.0312,0.15469 0.0693,0.22845 0.11131,0.21525 0.33214,0.92378 0.36169,1.16052 0.0149,0.11968 0.0458,0.25431 0.0686,0.29916 0.0615,0.12107 0.13091,0.3692 0.19031,0.67987 0.0444,0.2325 0.10239,0.47022 0.16825,0.69038 0.007,0.0253 0.0457,0.22207 0.0848,0.43724 0.0391,0.21517 0.091,0.44299 0.11544,0.50627 0.0244,0.0633 0.0519,0.18952 0.0612,0.28051 0.009,0.091 0.031,0.18858 0.0485,0.21685 0.0175,0.0283 0.0512,0.30591 0.075,0.61698 0.0268,0.35061 0.0796,0.67054 0.13898,0.84173 0.10152,0.29296 0.12033,0.628 0.0684,1.21966 -0.0167,0.18986 -0.0368,0.49017 -0.0446,0.66737 -0.008,0.17719 -0.0299,0.44015 -0.0489,0.58434 l -0.0346,0.26216 0.13275,-0.015 c 0.073,-0.008 0.15285,-0.003 0.17742,0.0115 0.0246,0.0146 0.25685,0.0307 0.51616,0.0359 0.25932,0.005 0.58095,0.0247 0.71475,0.0434 0.13378,0.0186 0.33645,0.0387 0.45037,0.0447 0.25099,0.0131 1.03709,0.14855 1.19664,0.20621 0.0633,0.0229 0.18756,0.0517 0.27615,0.064 0.17964,0.025 0.58519,0.0978 0.82329,0.14788 0.0858,0.018 0.27767,0.0917 0.42646,0.16382 0.1488,0.0721 0.29357,0.13105 0.3217,0.13105 0.0727,0 0.74066,0.32881 0.81364,0.4005 0.0334,0.0329 0.0778,0.0598 0.0986,0.0598 0.0208,0 0.0508,0.034 0.0668,0.0755 0.0255,0.0665 -0.004,0.0725 -0.25161,0.0501 -0.15433,-0.014 -0.31531,-0.0548 -0.35774,-0.0906 -0.0424,-0.0359 -0.28426,-0.13318 -0.5374,-0.21629 -0.25314,-0.0831 -0.5638,-0.19767 -0.69037,-0.25457 -0.12658,-0.0569 -0.40618,-0.12984 -0.62135,-0.16207 -0.21517,-0.0322 -0.52583,-0.0875 -0.69038,-0.1228 -0.60003,-0.12878 -1.10768,-0.19946 -1.41331,-0.19679 -0.17195,0.002 -0.40942,-0.0163 -0.52771,-0.0395 -0.1183,-0.0233 -0.23633,-0.0291 -0.2623,-0.0131 -0.026,0.0161 -0.16738,0.0254 -0.31421,0.0207 -0.31778,-0.0101 -0.52012,0.0548 -0.52012,0.16681 0,0.0444 -0.0322,0.17131 -0.0716,0.28208 -0.0394,0.11076 -0.0797,0.3098 -0.0897,0.44231 -0.0167,0.22274 -0.0104,0.24099 0.0831,0.24184 0.22703,0.002 0.70546,0.0761 0.79155,0.12254 0.0506,0.0273 0.23703,0.0637 0.41423,0.0809 0.28874,0.028 0.56248,0.0837 0.75941,0.15457 0.038,0.0137 0.10565,0.0203 0.15039,0.0147 0.0447,-0.006 0.18973,0.0193 0.32217,0.0553 0.13246,0.036 0.299,0.0683 0.37009,0.0718 0.0711,0.004 0.1975,0.0585 0.28091,0.12207 0.0888,0.0677 0.26416,0.13567 0.42304,0.1639 0.28227,0.0502 0.44689,0.11131 0.8069,0.29974 0.11735,0.0614 0.24457,0.11165 0.28274,0.11165 0.0382,0 0.0813,0.0311 0.0959,0.069 0.0146,0.038 0.0492,0.069 0.0769,0.069 0.0277,0 0.10272,0.0621 0.16662,0.13808 0.0639,0.0759 0.14179,0.13807 0.1731,0.13807 0.0653,0 0.25707,0.1914 0.25707,0.25658 0,0.0239 0.0466,0.0961 0.10356,0.16039 0.14677,0.16564 0.22627,0.31583 0.19445,0.36733 -0.071,0.11488 -0.39674,0.0144 -0.37464,-0.11557 0.004,-0.0246 -0.0389,-0.0678 -0.0957,-0.0962 -0.0568,-0.0283 -0.0896,-0.0652 -0.0729,-0.0819 0.0167,-0.0167 0.006,-0.0304 -0.0233,-0.0304 -0.0295,0 -0.0537,-0.0311 -0.0537,-0.069 0,-0.038 -0.0311,-0.069 -0.069,-0.069 -0.038,0 -0.069,-0.0313 -0.069,-0.0696 0,-0.0391 -0.10956,-0.12151 -0.24965,-0.18784 -0.13731,-0.065 -0.26093,-0.14758 -0.27472,-0.1835 -0.0138,-0.0359 -0.0568,-0.0653 -0.0957,-0.0653 -0.0388,0 -0.14793,-0.0414 -0.24238,-0.0921 -0.0945,-0.0506 -0.19824,-0.0921 -0.23059,-0.0921 -0.0596,0 -0.0962,-0.0151 -0.37198,-0.1533 -0.0843,-0.0422 -0.183,-0.0768 -0.21925,-0.0768 -0.0363,0 -0.1019,-0.0181 -0.14586,-0.0403 -0.0922,-0.0465 -0.54238,-0.18592 -0.67824,-0.21006 -0.52973,-0.0941 -0.70502,-0.13256 -0.78954,-0.17314 -0.0545,-0.0262 -0.12043,-0.0345 -0.14641,-0.0184 -0.026,0.0161 -0.0614,0.006 -0.0787,-0.0217 -0.0185,-0.03 -0.0913,-0.0397 -0.177,-0.0236 -0.08,0.015 -0.25891,-0.002 -0.39746,-0.037 -0.28993,-0.074 -1.09958,-0.0885 -1.18068,-0.0212 -0.0301,0.0249 -0.12099,0.17341 -0.20206,0.32991 -0.0811,0.15651 -0.22743,0.38063 -0.32523,0.49805 -0.0978,0.11743 -0.17782,0.22468 -0.17782,0.23835 0,0.0356 -0.5227,0.59499 -0.87404,0.93548 -0.16429,0.15922 -0.39211,0.33671 -0.50628,0.39441 -0.11415,0.0577 -0.27983,0.15301 -0.36819,0.2118 -0.19674,0.13092 -0.8315,0.43588 -1.08204,0.51985 -0.10125,0.0339 -0.23489,0.0933 -0.29697,0.1319 -0.23536,0.14636 -1.23185,0.35968 -1.43821,0.30789 -0.15452,-0.0388 -0.26691,-0.1495 -0.26691,-0.26294 0,-0.14441 0.17947,-0.22218 0.52929,-0.22936 0.26086,-0.005 0.38349,-0.0357 0.64435,-0.15941 0.17719,-0.084 0.43609,-0.19443 0.57532,-0.24532 0.94083,-0.34386 1.41018,-0.5791 1.65994,-0.83197 0.0649,-0.0658 0.18317,-0.17135 0.2627,-0.23464 0.0795,-0.0633 0.14547,-0.13955 0.14654,-0.16949 0.001,-0.0299 0.0415,-0.067 0.0899,-0.0823 0.0484,-0.0153 0.12372,-0.0825 0.16746,-0.14927 0.0437,-0.0668 0.12843,-0.1667 0.18821,-0.22211 0.0598,-0.0554 0.10869,-0.11473 0.10869,-0.13184 0,-0.0433 0.18558,-0.29574 0.31321,-0.42614 0.0583,-0.0596 0.13569,-0.17927 0.17189,-0.26589 0.0362,-0.0866 0.0868,-0.1705 0.11253,-0.18638 0.0257,-0.0159 0.0467,-0.0501 0.0467,-0.076 0,-0.0693 -1.35534,0.0102 -1.63388,0.0958 -0.0759,0.0233 -0.25199,0.0565 -0.39121,0.0738 -0.13924,0.0173 -0.27771,0.0512 -0.30774,0.0754 -0.0959,0.0774 -0.25214,-0.0431 -0.23582,-0.18178 0.0273,-0.23174 0.43998,-0.35126 1.39501,-0.40399 0.15189,-0.008 0.51434,-0.0278 0.80545,-0.0431 0.29111,-0.0153 0.5522,-0.0355 0.58021,-0.0449 0.0555,-0.0185 0.22127,-0.48149 0.18526,-0.51749 -0.0122,-0.0122 0.007,-0.11863 0.0429,-0.23656 0.0358,-0.11792 0.0653,-0.23579 0.0656,-0.26192 0,-0.0485 -0.38668,-0.048 -0.75209,0.001 -0.10501,0.0141 -0.36698,0.0449 -0.58215,0.0684 -0.21516,0.0236 -0.4739,0.0669 -0.57499,0.0963 -0.10109,0.0294 -0.24607,0.0593 -0.32218,0.0666 -0.0761,0.007 -0.22872,0.0366 -0.33911,0.0652 -0.22838,0.0592 -0.32905,0.0125 -0.32787,-0.15197 10e-4,-0.17822 0.0717,-0.21602 0.57853,-0.31071 0.27629,-0.0516 0.60592,-0.11322 0.73248,-0.13688 0.32111,-0.06 0.70707,-0.0874 1.22902,-0.087 l 0.44658,2.7e-4 0.0278,-0.17301 c 0.0153,-0.0952 0.0402,-0.22479 0.0554,-0.28807 0.12545,-0.52446 0.1586,-1.04988 0.0992,-1.57194 -0.0241,-0.21127 -0.051,-0.45928 -0.06,-0.55113 -0.0251,-0.25729 -0.0776,-0.47105 -0.13254,-0.53909 -0.0274,-0.034 -0.054,-0.14787 -0.0591,-0.25313 -0.008,-0.17048 -0.0501,-0.683 -0.087,-1.06588 -0.007,-0.0759 -0.0337,-0.18986 -0.0587,-0.25314 -0.025,-0.0633 -0.0602,-0.20298 -0.0782,-0.31043 -0.0181,-0.10745 -0.0505,-0.20631 -0.0721,-0.21967 -0.0216,-0.0134 -0.0536,-0.16928 -0.0711,-0.34646 -0.0175,-0.17717 -0.0497,-0.33325 -0.0717,-0.34684 -0.022,-0.0136 -0.04,-0.0718 -0.04,-0.12939 0,-0.0576 -0.0148,-0.11948 -0.0329,-0.13759 -0.0467,-0.0467 -0.27187,-0.91678 -0.36776,-1.42127 -0.0133,-0.0699 -0.0425,-0.13846 -0.0649,-0.1523 -0.0224,-0.0138 -0.0407,-0.0757 -0.0407,-0.1375 0,-0.0618 -0.0229,-0.11235 -0.051,-0.11235 -0.028,0 -0.0389,-0.0313 -0.0243,-0.0696 0.0327,-0.0853 -0.0179,-0.2016 -0.32732,-0.75121 -0.133,-0.23627 -0.24182,-0.45892 -0.24182,-0.49477 0,-0.0359 -0.0289,-0.0652 -0.0641,-0.0652 -0.0703,0 -0.13446,-0.12345 -0.0963,-0.18525 0.0267,-0.0433 -0.16312,-0.4591 -0.20961,-0.4591 -0.0958,0 -0.25978,0.64186 -0.29983,1.17363 -0.024,0.31863 -0.0933,0.78592 -0.22798,1.53813 -0.085,0.47465 -0.10405,1.67619 -0.0295,1.85922 0.0756,0.18558 0.0672,0.3537 -0.0177,0.3537 -0.0388,0 -0.0838,0.0362 -0.10019,0.0805 -0.0401,0.10873 -0.1056,0.14804 -0.24792,0.14888 -0.16565,0.001 -0.28031,-0.14246 -0.28217,-0.35299 -0.005,-0.58028 0.039,-1.60654 0.0702,-1.62951 0.0202,-0.0149 0.0659,-0.2324 0.10145,-0.48326 0.0356,-0.25087 0.0955,-0.61589 0.13327,-0.81116 0.0377,-0.19526 0.0805,-0.537 0.095,-0.75941 0.0223,-0.34111 0.0174,-0.38638 -0.0307,-0.28932 -0.0314,0.0633 -0.0691,0.12542 -0.0838,0.13807 -0.0445,0.0384 -0.32106,0.46287 -0.32106,0.49274 0,0.0153 -0.057,0.10198 -0.12658,0.19257 -0.15294,0.19905 -0.15791,0.20756 -0.45685,0.78147 -0.13104,0.25156 -0.25851,0.53079 -0.28328,0.6205 -0.0405,0.14656 -0.0339,0.17041 0.0649,0.23515 0.21868,0.14328 0.18311,0.43908 -0.0528,0.43908 -0.0701,0 -0.12759,0.0422 -0.16697,0.12264 -0.0515,0.1053 -0.0887,0.12256 -0.2626,0.12214 -0.13691,-2.7e-4 -0.22104,-0.0258 -0.25963,-0.0786 -0.0314,-0.0429 -0.13701,-0.0862 -0.23468,-0.096 -0.9753,-0.0985 -1.10989,-0.10269 -1.67342,-0.0526 -0.21517,0.0191 -0.49477,0.0439 -0.62133,0.0549 -0.27248,0.0239 -0.46702,0.10836 -0.61688,0.26788 -0.0759,0.0807 -0.13188,0.10505 -0.18341,0.0796 -0.13861,-0.0685 -0.36023,-0.0267 -0.52506,0.099 -0.21559,0.16444 -0.45269,0.17092 -0.53633,0.0147 -0.0731,-0.13657 -0.0322,-0.2115 0.11543,-0.2115 0.0618,0 0.11235,-0.0157 0.11235,-0.0348 0,-0.0191 0.0673,-0.0641 0.14959,-0.1 0.0823,-0.0358 0.1935,-0.10669 0.24718,-0.15744 0.0839,-0.0793 0.0913,-0.11492 0.053,-0.25373 -0.0245,-0.0888 -0.0713,-0.20423 -0.10395,-0.25651 -0.0326,-0.0523 -0.073,-0.17272 -0.0896,-0.26765 -0.0166,-0.0949 -0.0474,-0.17259 -0.0685,-0.17259 -0.021,0 -0.05,-0.0593 -0.0645,-0.13168 -0.0279,-0.13945 -0.60783,-1.1649 -0.80715,-1.42724 -0.13192,-0.17362 -0.18562,-0.12803 -0.0841,0.0714 0.17509,0.34414 0.22188,1.14953 0.10246,1.76358 -0.0369,0.18986 -0.0783,0.50053 -0.0919,0.69038 -0.0136,0.18985 -0.0498,0.44487 -0.0803,0.5667 -0.0434,0.17325 -0.0434,0.23844 0,0.29917 0.11133,0.15502 0.10964,0.19682 -0.0129,0.31937 -0.12082,0.12082 -0.12672,0.12197 -0.18907,0.0367 -0.0629,-0.0861 -0.0667,-0.0858 -0.17121,0.0124 -0.13032,0.12244 -0.19863,0.12676 -0.25775,0.0163 -0.0866,-0.16187 -0.0861,-0.35082 0.002,-0.49655 0.0529,-0.0881 0.0965,-0.27452 0.11296,-0.48326 0.0147,-0.18693 0.0555,-0.43306 0.0906,-0.54698 0.055,-0.17848 0.16572,-0.75925 0.17107,-0.89748 0.003,-0.0689 -0.0571,-0.62129 -0.0872,-0.80544 -0.0145,-0.0886 -0.0636,-0.275 -0.10923,-0.41423 -0.0456,-0.13922 -0.11833,-0.38776 -0.16163,-0.5523 -0.11022,-0.41879 -0.157,-0.53493 -0.24894,-0.61814 -0.0744,-0.0673 -0.093,-0.0535 -0.26022,0.19228 -0.0991,0.14563 -0.20594,0.28548 -0.23749,0.3108 -0.0315,0.0253 -0.12913,0.15994 -0.21685,0.29916 -0.0877,0.13923 -0.18629,0.28345 -0.21901,0.32049 -0.0801,0.0907 -0.13128,0.18237 -0.37834,0.67799 -0.11602,0.23275 -0.23155,0.4359 -0.25673,0.45146 -0.0252,0.0156 -0.0458,0.0746 -0.0458,0.13127 0,0.0566 -0.072,0.21592 -0.15992,0.35398 -0.0879,0.13805 -0.16043,0.27894 -0.16109,0.31308 0,0.0341 -0.032,0.12735 -0.0696,0.20712 -0.0376,0.0798 -0.0872,0.2693 -0.11005,0.42118 -0.0403,0.26722 -0.091,0.43839 -0.22068,0.74412 -0.034,0.0802 -0.0749,0.24126 -0.0909,0.35795 -0.016,0.11668 -0.0469,0.22317 -0.0687,0.23663 -0.0218,0.0135 -0.0403,0.10092 -0.0412,0.19435 -0.002,0.15465 -0.0318,0.31087 -0.1804,0.92929 -0.0274,0.11391 -0.0687,0.24854 -0.0918,0.29916 -0.0231,0.0506 -0.0517,0.15419 -0.0636,0.23013 -0.0118,0.0759 -0.0335,0.18985 -0.0482,0.25314 -0.16004,0.69099 -0.23096,0.98089 -0.29021,1.18644 -0.0385,0.13361 -0.0783,0.34072 -0.0883,0.46025 -0.01,0.11953 -0.0323,0.2691 -0.0494,0.33238 -0.0171,0.0633 -0.0354,0.15649 -0.0406,0.20712 -0.005,0.0506 -0.0252,0.2422 -0.0445,0.42573 -0.0388,0.36854 -0.0279,0.38158 0.2243,0.26884 0.0798,-0.0357 0.19681,-0.0749 0.2601,-0.0871 0.0633,-0.0122 0.35324,-0.0838 0.64435,-0.159 0.7359,-0.1901 0.96031,-0.21521 1.06626,-0.11932 0.0464,0.042 0.0844,0.10957 0.0844,0.15019 0,0.16076 -0.19292,0.21397 -1.55249,0.4282 -0.64719,0.10198 -0.7815,0.15973 -0.65822,0.28301 0.0262,0.0261 0.0475,0.0965 0.0475,0.15642 0,0.0599 0.0231,0.15198 0.0513,0.20465 0.0282,0.0527 0.0748,0.19087 0.10355,0.3071 0.065,0.2628 0.15369,0.28754 0.41221,0.11504 0.30958,-0.20658 0.78132,-0.43159 0.90578,-0.43205 0.0633,-2.6e-4 0.1744,-0.0314 0.24691,-0.0692 0.0725,-0.0378 0.17662,-0.0687 0.23138,-0.0687 0.13993,0 0.30415,0.12628 0.30415,0.23387 0,0.10337 -0.11437,0.15736 -0.43531,0.20548 -0.12088,0.0181 -0.36752,0.10792 -0.5481,0.19953 -0.18057,0.0916 -0.41116,0.20309 -0.51241,0.24775 -0.10125,0.0446 -0.22262,0.11073 -0.26971,0.14685 -0.0828,0.0635 -0.0821,0.0707 0.0213,0.21798 0.0588,0.0838 0.12324,0.15921 0.14313,0.16765 0.0199,0.008 0.0362,0.0435 0.0362,0.0779 0,0.0344 0.0372,0.0896 0.0826,0.12273 0.0455,0.0331 0.12713,0.13263 0.18148,0.22123 0.12636,0.20596 0.61826,0.68027 0.8865,0.85479 0.11392,0.0741 0.24674,0.1705 0.29517,0.2142 0.0484,0.0437 0.15716,0.10226 0.24163,0.13014 0.0845,0.0279 0.15358,0.0656 0.15358,0.0839 0,0.0183 0.19158,0.12977 0.42574,0.24777 0.44081,0.22213 0.98062,0.4192 1.3002,0.47465 0.10125,0.0176 0.24445,0.0625 0.31822,0.0999 0.0738,0.0374 0.19803,0.0758 0.27614,0.0854 0.0781,0.01 0.2456,0.0297 0.37216,0.0447 0.27411,0.0325 0.55082,0.15574 0.75136,0.33479 0.23307,0.20808 0.20398,0.2568 -0.21075,0.35321 -0.25396,0.059 -0.49897,0.0508 -0.67868,-0.0229 -0.0804,-0.033 -0.56417,-0.18523 -1.27459,-0.4012 -0.1188,-0.0361 -0.26705,-0.10582 -0.32944,-0.15488 -0.0624,-0.0491 -0.16648,-0.0892 -0.23132,-0.0892 -0.10432,0 -0.38346,-0.11238 -0.58098,-0.2339 -0.038,-0.0234 -0.11463,-0.0622 -0.17036,-0.0864 -0.0557,-0.0242 -0.18476,-0.0966 -0.28674,-0.16098 -0.10198,-0.0644 -0.2169,-0.11705 -0.25537,-0.11705 -0.0385,0 -0.07,-0.0315 -0.07,-0.07 0,-0.0385 -0.057,-0.0944 -0.12656,-0.12415 -0.18707,-0.08 -0.72088,-0.52074 -0.86821,-0.71682 -0.0705,-0.0938 -0.2072,-0.25464 -0.30381,-0.35736 -0.19849,-0.21105 -0.49639,-0.65574 -0.49639,-0.74097 0,-0.11955 -0.0989,-0.10805 -0.23418,0.0272 -0.0776,0.0776 -0.16737,0.1411 -0.19947,0.1411 -0.0321,0 -0.0959,0.0414 -0.14167,0.0921 -0.0458,0.0506 -0.1062,0.0921 -0.13419,0.0921 -0.028,0 -0.24744,0.20723 -0.48765,0.46051 -0.2402,0.25328 -0.57653,0.60784 -0.74741,0.78791 -0.17086,0.18008 -0.31066,0.34276 -0.31066,0.36151 0,0.0188 -0.0725,0.11096 -0.16109,0.2049 -0.0886,0.0939 -0.16108,0.19968 -0.16108,0.23497 0,0.0353 -0.0617,0.13439 -0.13703,0.22022 -0.0754,0.0858 -0.12382,0.16928 -0.10768,0.18542 0.0161,0.0161 -0.002,0.0657 -0.0414,0.11018 -0.17262,0.19705 -0.45497,0.76913 -0.42956,0.87037 0.0185,0.0739 0,0.11822 -0.0633,0.15213 -0.11109,0.0594 -0.20182,0.0622 -0.1665,0.005 z m 8.96235,-3.04035 c -0.0839,-0.0199 -0.20179,-0.0823 -0.26193,-0.13883 -0.13013,-0.12224 -0.31406,-0.48974 -0.39722,-0.79366 -0.0415,-0.15154 -0.0838,-0.21862 -0.13802,-0.21862 -0.30362,0 -0.81825,-0.4156 -1.00403,-0.81085 -0.0981,-0.20872 -0.099,-0.22246 -0.024,-0.38873 0.14094,-0.31255 0.48853,-0.23112 0.55634,0.13034 0.0175,0.0932 0.0592,0.19687 0.0927,0.2304 0.0335,0.0335 0.077,0.0858 0.0965,0.11622 0.0613,0.0952 0.30408,0.19925 0.4958,0.21235 0.10125,0.007 0.20834,0.0325 0.23797,0.0569 0.0362,0.0298 0.15373,-0.002 0.35816,-0.0979 0.25116,-0.11742 0.30892,-0.16543 0.33081,-0.27492 0.0146,-0.073 0.0839,-0.18764 0.15406,-0.25483 0.11824,-0.11327 0.14107,-0.11852 0.31371,-0.072 0.1512,0.0407 0.19175,0.0754 0.21574,0.18468 0.0163,0.074 0.006,0.17795 -0.0221,0.23102 -0.0284,0.0531 -0.0392,0.1357 -0.024,0.18362 0.0455,0.14329 0.55555,0.091 0.97553,-0.10008 0.12187,-0.0554 0.24231,-0.10357 0.26762,-0.10697 0.12799,-0.0171 0.29915,-0.13819 0.29915,-0.21156 0,-0.0457 0.0349,-0.15629 0.0776,-0.24575 0.0688,-0.1442 0.0975,-0.16265 0.25314,-0.16265 0.17787,0 0.36042,0.12287 0.35898,0.24163 -0.002,0.17687 -0.1348,0.41916 -0.25785,0.4709 -0.073,0.0307 -0.16238,0.0916 -0.19865,0.13525 -0.0363,0.0437 -0.15017,0.12214 -0.25311,0.17432 -0.10295,0.0522 -0.19753,0.10765 -0.21019,0.12328 -0.0126,0.0156 -0.0851,0.0567 -0.16109,0.0912 -0.0759,0.0345 -0.16915,0.0782 -0.20712,0.097 -0.0396,0.0196 -0.0702,0.0994 -0.0718,0.18737 -0.002,0.0842 -0.0274,0.1614 -0.0575,0.17143 -0.0301,0.01 -0.0547,0.09 -0.0547,0.17764 0,0.13093 -0.0256,0.17339 -0.14333,0.23779 -0.0788,0.0431 -0.21461,0.12516 -0.30171,0.1823 -0.0871,0.0571 -0.2349,0.12328 -0.32842,0.14697 -0.0935,0.0237 -0.25291,0.0645 -0.35416,0.0906 -0.2112,0.0545 -0.39484,0.0558 -0.61283,0.004 z m 0.87212,-0.63333 c 0.14727,-0.0696 0.26827,-0.14992 0.26889,-0.17846 0,-0.0285 0.0322,-0.0777 0.0702,-0.10919 0.11699,-0.0971 0.0793,-0.15025 -0.0847,-0.11948 -0.17415,0.0327 -0.43024,-0.0568 -0.6611,-0.231 -0.14649,-0.11053 -0.14883,-0.11074 -0.33768,-0.03 l -0.19019,0.0813 0.0283,0.23013 c 0.0362,0.29508 0.21966,0.48326 0.471,0.48326 0.0922,0 0.28812,-0.057 0.43539,-0.12657 z m 1.26215,-3.38158 c -0.0394,-0.0563 -0.0716,-0.13769 -0.0716,-0.18096 0,-0.0762 0.22272,-0.26905 0.31063,-0.26905 0.0238,0 0.0808,-0.0414 0.12661,-0.092 0.0458,-0.0506 0.10277,-0.0921 0.12659,-0.0921 0.0238,0 0.0983,-0.0379 0.16545,-0.0843 0.13773,-0.095 0.80969,-0.33644 1.22677,-0.44075 0.22527,-0.0563 0.7708,-0.10846 1.33473,-0.12751 0.11135,-0.004 0.19976,0.0203 0.52865,0.14362 0.13887,0.0521 0.29822,0.0947 0.35412,0.0947 0.0559,0 0.15379,0.0466 0.21754,0.10356 0.12656,0.11308 0.20885,0.35291 0.12435,0.36244 -0.0281,0.003 -0.0717,0.0109 -0.097,0.0172 -0.0253,0.006 -0.0874,0.0141 -0.13808,0.0173 -0.0506,0.003 -0.092,0.0344 -0.092,0.0694 0,0.11968 -0.23485,0.11991 -0.35441,2.7e-4 -0.0605,-0.0605 -0.12327,-0.11002 -0.13943,-0.11002 -0.0162,0 -0.11582,-0.0418 -0.22146,-0.093 -0.14735,-0.0713 -0.29263,-0.0942 -0.62435,-0.0983 -0.36878,-0.005 -0.52028,0.0196 -1.03065,0.16386 -0.32908,0.093 -0.66359,0.1994 -0.74336,0.23635 -0.0798,0.0369 -0.16779,0.0672 -0.1956,0.0672 -0.0278,0 -0.0506,0.0207 -0.0506,0.046 0,0.0253 -0.0259,0.0464 -0.0575,0.0469 -0.0316,5.3e-4 -0.14016,0.073 -0.24114,0.16109 -0.21188,0.18489 -0.35641,0.20316 -0.45814,0.0579 z m -2.01135,-0.25239 c -0.043,-0.10145 -0.50786,-0.3467 -0.86315,-0.45535 -0.45176,-0.13815 -0.76582,-0.14736 -1.44045,-0.0422 -0.47677,0.0743 -0.75329,0.15429 -1.0248,0.29652 -0.29111,0.15249 -0.43901,0.11425 -0.43901,-0.11351 0,-0.0932 0.22923,-0.28975 0.37533,-0.32184 0.0696,-0.0153 0.17835,-0.0685 0.24156,-0.11822 0.18941,-0.14899 0.89774,-0.28181 1.50027,-0.28132 0.29111,2.7e-4 0.58759,0.0233 0.65885,0.0512 0.0713,0.0279 0.19064,0.0507 0.26527,0.0507 0.0746,0 0.17166,0.0183 0.21563,0.0405 0.2375,0.12049 0.51102,0.23561 0.55977,0.23561 0.0306,0 0.12769,0.055 0.21584,0.12225 0.18306,0.13963 0.19505,0.28766 0.0292,0.36042 -0.057,0.025 -0.10356,0.0716 -0.10356,0.10356 0,0.032 -0.009,0.0581 -0.0193,0.0581 -0.0106,0 -0.0498,0.0117 -0.0872,0.0261 -0.0374,0.0143 -0.0753,0.009 -0.0843,-0.0126 z m -3.39921,-4.9351 c 0,-0.087 0.0286,-0.14511 0.0805,-0.1635 0.0443,-0.0157 0.15852,-0.131 0.25384,-0.25624 0.1007,-0.13233 0.20994,-0.22771 0.2608,-0.22771 0.0481,0 0.0944,-0.0203 0.10286,-0.0452 0.009,-0.0249 0.0878,-0.0536 0.17642,-0.0639 0.16281,-0.0188 0.32218,0.0684 0.32218,0.17621 0,0.0519 -0.41702,0.30107 -0.50389,0.30107 -0.0558,0 -0.31509,0.17484 -0.46118,0.31094 -0.15268,0.14225 -0.23158,0.13145 -0.23158,-0.0317 z m 10.17154,-0.16973 c -0.0886,-0.0399 -0.2462,-0.11188 -0.35023,-0.16004 -0.10402,-0.0481 -0.21178,-0.0875 -0.23947,-0.0875 -0.0277,0 -0.10308,-0.024 -0.16755,-0.0534 -0.15707,-0.0716 -0.16583,-0.29965 -0.0136,-0.35636 0.13449,-0.0501 0.45335,0.0451 0.6479,0.19347 0.0819,0.0625 0.18975,0.12148 0.23956,0.13108 0.0498,0.01 0.0874,0.0379 0.0836,0.0628 -0.004,0.025 0.0117,0.0801 0.0343,0.1226 0.0412,0.077 0.0124,0.22289 -0.0438,0.2209 -0.0163,-5.2e-4 -0.10209,-0.0337 -0.19069,-0.0735 z m -10.4619,-0.27716 c -0.0412,-0.0412 0.0477,-0.31505 0.0986,-0.30412 0.0295,0.006 0.0536,-0.009 0.0536,-0.0345 0,-0.0253 0.0275,-0.046 0.061,-0.046 0.0336,0 0.10868,-0.0507 0.16693,-0.11274 0.12279,-0.1307 0.43668,-0.28753 0.65113,-0.32531 0.0818,-0.0144 0.16594,-0.0368 0.18696,-0.0498 0.0971,-0.06 0.24757,-0.0562 0.31863,0.008 0.0958,0.0867 0.0665,0.22322 -0.0662,0.30942 -0.0947,0.0615 -0.55528,0.23029 -0.65107,0.23864 -0.12826,0.0112 -0.47054,0.14535 -0.54483,0.21357 -0.0872,0.08 -0.24029,0.13729 -0.27481,0.10275 z m 10.6897,-0.36435 c -0.12393,-0.0679 -0.35313,-0.10954 -0.72118,-0.13088 -0.28899,-0.0168 -0.3811,-0.0833 -0.3811,-0.27521 0,-0.24628 0.29262,-0.34897 0.52689,-0.18488 0.0506,0.0354 0.14427,0.0659 0.20825,0.0678 0.064,0.002 0.17847,0.043 0.2544,0.0916 0.0759,0.0485 0.18354,0.11193 0.2391,0.14095 0.11544,0.0603 0.16054,0.14887 0.12411,0.24383 -0.038,0.0991 -0.12534,0.11546 -0.25047,0.0469 z"
       id="path3144"
       inkscape:connector-curvature="0"
       inkscape:export-filename="/home/veress/Pictures/simple cat drawings/cute-cat-14.png"
       inkscape:export-xdpi="448.03293"
       inkscape:export-ydpi="448.03293" />
  </g>
</svg>
